# Made in Blockbench 4.9.1
mtllib LongPipe1.mtl

o Joint
v -3.1136062389327304e-18 0.203125 1.6813473690236744e-17
v -3.1136062389327304e-18 0.296875 1.6813473690236744e-17
v 0.11722777168861614 0.203125 0.4375
v 0.11722777168861614 0.296875 0.4375
v 0.3202722283113838 0.203125 0.3202722283113838
v 0.3202722283113838 0.296875 0.3202722283113838
v 0.4375 0.203125 0.11722777168861616
v 0.4375 0.296875 0.11722777168861616
v 0.4375 0.203125 -0.11722777168861616
v 0.4375 0.296875 -0.11722777168861616
v 0.3202722283113838 0.203125 -0.3202722283113838
v 0.3202722283113838 0.296875 -0.3202722283113838
v 0.1172277716886163 0.203125 -0.4374999999999998
v 0.1172277716886163 0.296875 -0.4374999999999998
v -0.11722777168861599 0.203125 -0.4375
v -0.11722777168861599 0.296875 -0.4375
v -0.3202722283113838 0.203125 -0.3202722283113838
v -0.3202722283113838 0.296875 -0.3202722283113838
v -0.4374999999999999 0.203125 -0.11722777168861608
v -0.4374999999999999 0.296875 -0.11722777168861608
v -0.4375 0.203125 0.11722777168861596
v -0.4375 0.296875 0.11722777168861596
v -0.3202722283113839 0.203125 0.3202722283113837
v -0.3202722283113839 0.296875 0.3202722283113837
v -0.11722777168861614 0.203125 0.4375
v -0.11722777168861614 0.296875 0.4375
vt 0.16237968749999998 0.9748796875
vt 0.11887031249999999 1
vt 0.09375 0.90625
vt 0.10055976562499999 0.53125
vt 0.150800390625 0.53125
vt 0.150800390625 0.65625
vt 0.10055976562499999 0.65625
vt 0.2751203125 0.640625
vt 0.3186296875 0.6657453125
vt 0.25 0.734375
vt 0.1875 0.9313703125
vt 0.16237968749999998 0.9748796875
vt 0.09375 0.90625
vt 0.203203515625 0.875
vt 0.253444140625 0.875
vt 0.253444140625 1
vt 0.203203515625 1
vt 0.3186296875 0.6657453125
vt 0.34375 0.7092546875
vt 0.25 0.734375
vt 0.1875 0.8811296875
vt 0.1875 0.9313703125
vt 0.09375 0.90625
vt 0.253444140625 0.875
vt 0.303684765625 0.875
vt 0.303684765625 1
vt 0.253444140625 1
vt 0.34375 0.7092546875
vt 0.34375 0.7594953125
vt 0.25 0.734375
vt 0.16237968749999998 0.8376203125
vt 0.1875 0.8811296875
vt 0.09375 0.90625
vt 0.303684765625 0.875
vt 0.353925390625 0.875
vt 0.353925390625 1
vt 0.303684765625 1
vt 0.34375 0.7594953125
vt 0.3186296875 0.8030046875
vt 0.25 0.734375
vt 0.11887031249999999 0.8125
vt 0.16237968749999998 0.8376203125
vt 0.09375 0.90625
vt 0.359453515625 0.734375
vt 0.409694140625 0.734375
vt 0.409694140625 0.859375
vt 0.359453515625 0.859375
vt 0.3186296875 0.8030046875
vt 0.2751203125 0.828125
vt 0.25 0.734375
vt 0.06862968750000001 0.8125
vt 0.11887031249999999 0.8125
vt 0.09375 0.90625
vt 0.409694140625 0.734375
vt 0.459934765625 0.734375
vt 0.459934765625 0.859375
vt 0.409694140625 0.859375
vt 0.2751203125 0.828125
vt 0.2248796875 0.828125
vt 0.25 0.734375
vt 0.025120312500000005 0.8376203125
vt 0.06862968750000001 0.8125
vt 0.09375 0.90625
vt 0.459934765625 0.734375
vt 0.510175390625 0.734375
vt 0.510175390625 0.859375
vt 0.459934765625 0.859375
vt 0.2248796875 0.828125
vt 0.18137031250000002 0.8030046875
vt 0.25 0.734375
vt 0 0.8811296875
vt 0.025120312500000005 0.8376203125
vt 0.09375 0.90625
vt 0.343828515625 0.53125
vt 0.394069140625 0.53125
vt 0.394069140625 0.65625
vt 0.343828515625 0.65625
vt 0.18137031250000002 0.8030046875
vt 0.15625 0.7594953125
vt 0.25 0.734375
vt 0 0.9313703125
vt 0 0.8811296875
vt 0.09375 0.90625
vt 0.394069140625 0.53125
vt 0.444309765625 0.53125
vt 0.444309765625 0.65625
vt 0.394069140625 0.65625
vt 0.15625 0.7594953125
vt 0.15625 0.7092546875
vt 0.25 0.734375
vt 0.025120312500000005 0.9748796875
vt 0 0.9313703125
vt 0.09375 0.90625
vt 0.444309765625 0.53125
vt 0.494550390625 0.53125
vt 0.494550390625 0.65625
vt 0.444309765625 0.65625
vt 0.15625 0.7092546875
vt 0.18137031250000002 0.6657453125
vt 0.25 0.734375
vt 0.06862968750000001 1
vt 0.025120312500000005 0.9748796875
vt 0.09375 0.90625
vt 0.00007851562499999742 0.53125
vt 0.050319140625 0.53125
vt 0.050319140625 0.65625
vt 0.00007851562499999742 0.65625
vt 0.18137031250000002 0.6657453125
vt 0.2248796875 0.640625
vt 0.25 0.734375
vt 0.11887031249999999 1
vt 0.06862968750000001 1
vt 0.09375 0.90625
vt 0.050319140625 0.53125
vt 0.10055976562499999 0.53125
vt 0.10055976562499999 0.65625
vt 0.050319140625 0.65625
vt 0.2248796875 0.640625
vt 0.2751203125 0.640625
vt 0.25 0.734375
vn 0 -1 0
vn 0.5 0 0.8660254037844388
vn 0 1 0
vn 0 -1 0
vn 0.8660254037844388 0 0.5
vn 0 1 0
vn 0 -1 0
vn 1 0 0
vn 0 1 0
vn 0 -1 0
vn 0.8660254037844388 0 -0.5
vn 0 1 0
vn 0 -1 0
vn 0.4999999999999996 0 -0.8660254037844388
vn 0 1 0
vn 0 -1 0
vn 9.470648538591722e-16 0 -1
vn 0 1 0
vn 0 -1 0
vn -0.49999999999999967 0 -0.8660254037844388
vn 0 1 0
vn 0 -1 0
vn -0.866025403784439 0 -0.4999999999999996
vn 0 1 0
vn 0 -1 0
vn -1 0 -4.735324269295866e-16
vn 0 1 0
vn 0 -1 0
vn -0.866025403784439 0 0.4999999999999996
vn 0 1 0
vn 0 -1 0
vn -0.5000000000000002 0 0.8660254037844387
vn 0 1 0
vn 0 -1 0
vn 0 0 1
vn 0 1 0
usemtl m_9db90d76-22c6-acbf-af43-81f2c7778fcd
f 5/1/1 3/2/1 1/3/1
f 3/4/2 5/5/2 6/6/2 4/7/2
f 4/8/3 6/9/3 2/10/3
f 7/11/4 5/12/4 1/13/4
f 5/14/5 7/15/5 8/16/5 6/17/5
f 6/18/6 8/19/6 2/20/6
f 9/21/7 7/22/7 1/23/7
f 7/24/8 9/25/8 10/26/8 8/27/8
f 8/28/9 10/29/9 2/30/9
f 11/31/10 9/32/10 1/33/10
f 9/34/11 11/35/11 12/36/11 10/37/11
f 10/38/12 12/39/12 2/40/12
f 13/41/13 11/42/13 1/43/13
f 11/44/14 13/45/14 14/46/14 12/47/14
f 12/48/15 14/49/15 2/50/15
f 15/51/16 13/52/16 1/53/16
f 13/54/17 15/55/17 16/56/17 14/57/17
f 14/58/18 16/59/18 2/60/18
f 17/61/19 15/62/19 1/63/19
f 15/64/20 17/65/20 18/66/20 16/67/20
f 16/68/21 18/69/21 2/70/21
f 19/71/22 17/72/22 1/73/22
f 17/74/23 19/75/23 20/76/23 18/77/23
f 18/78/24 20/79/24 2/80/24
f 21/81/25 19/82/25 1/83/25
f 19/84/26 21/85/26 22/86/26 20/87/26
f 20/88/27 22/89/27 2/90/27
f 23/91/28 21/92/28 1/93/28
f 21/94/29 23/95/29 24/96/29 22/97/29
f 22/98/30 24/99/30 2/100/30
f 25/101/31 23/102/31 1/103/31
f 23/104/32 25/105/32 26/106/32 24/107/32
f 24/108/33 26/109/33 2/110/33
f 3/111/34 25/112/34 1/113/34
f 25/114/35 3/115/35 4/116/35 26/117/35
f 26/118/36 4/119/36 2/120/36
o Body
v -2.9738116731030977e-18 0.125 -6.938893903907228e-18
v -2.9738116731030977e-18 6.125 -6.938893903907228e-18
v 0.10048094716167097 0.125 0.37499999999999994
v 0.10048094716167097 6.125 0.37499999999999994
v 0.27451905283832895 0.125 0.27451905283832895
v 0.27451905283832895 6.125 0.27451905283832895
v 0.375 0.125 0.100480947161671
v 0.375 6.125 0.100480947161671
v 0.375 0.125 -0.10048094716167102
v 0.375 6.125 -0.10048094716167102
v 0.27451905283832895 0.125 -0.27451905283832906
v 0.27451905283832895 6.125 -0.27451905283832906
v 0.10048094716167111 0.125 -0.37499999999999994
v 0.10048094716167111 6.125 -0.37499999999999994
v -0.10048094716167084 0.125 -0.37500000000000006
v -0.10048094716167084 6.125 -0.37500000000000006
v -0.27451905283832895 0.125 -0.27451905283832906
v -0.27451905283832895 6.125 -0.27451905283832906
v -0.3749999999999999 0.125 -0.10048094716167094
v -0.3749999999999999 6.125 -0.10048094716167094
v -0.375 0.125 0.10048094716167083
v -0.375 6.125 0.10048094716167083
v -0.27451905283832906 0.125 0.27451905283832884
v -0.27451905283832906 6.125 0.27451905283832884
v -0.10048094716167097 0.125 0.37499999999999994
v -0.10048094716167097 6.125 0.37499999999999994
vt 0.16237968749999998 0.9748796875
vt 0.11887031249999999 1
vt 0.09375 0.90625
vt 0.10055976562499999 0.53125
vt 0.150800390625 0.53125
vt 0.150800390625 0.65625
vt 0.10055976562499999 0.65625
vt 0.2751203125 0.640625
vt 0.3186296875 0.6657453125
vt 0.25 0.734375
vt 0.1875 0.9313703125
vt 0.16237968749999998 0.9748796875
vt 0.09375 0.90625
vt 0.203203515625 0.875
vt 0.253444140625 0.875
vt 0.253444140625 1
vt 0.203203515625 1
vt 0.3186296875 0.6657453125
vt 0.34375 0.7092546875
vt 0.25 0.734375
vt 0.1875 0.8811296875
vt 0.1875 0.9313703125
vt 0.09375 0.90625
vt 0.253444140625 0.875
vt 0.303684765625 0.875
vt 0.303684765625 1
vt 0.253444140625 1
vt 0.34375 0.7092546875
vt 0.34375 0.7594953125
vt 0.25 0.734375
vt 0.16237968749999998 0.8376203125
vt 0.1875 0.8811296875
vt 0.09375 0.90625
vt 0.303684765625 0.875
vt 0.353925390625 0.875
vt 0.353925390625 1
vt 0.303684765625 1
vt 0.34375 0.7594953125
vt 0.3186296875 0.8030046875
vt 0.25 0.734375
vt 0.11887031249999999 0.8125
vt 0.16237968749999998 0.8376203125
vt 0.09375 0.90625
vt 0.359453515625 0.734375
vt 0.409694140625 0.734375
vt 0.409694140625 0.859375
vt 0.359453515625 0.859375
vt 0.3186296875 0.8030046875
vt 0.2751203125 0.828125
vt 0.25 0.734375
vt 0.06862968750000001 0.8125
vt 0.11887031249999999 0.8125
vt 0.09375 0.90625
vt 0.409694140625 0.734375
vt 0.459934765625 0.734375
vt 0.459934765625 0.859375
vt 0.409694140625 0.859375
vt 0.2751203125 0.828125
vt 0.2248796875 0.828125
vt 0.25 0.734375
vt 0.025120312500000005 0.8376203125
vt 0.06862968750000001 0.8125
vt 0.09375 0.90625
vt 0.459934765625 0.734375
vt 0.510175390625 0.734375
vt 0.510175390625 0.859375
vt 0.459934765625 0.859375
vt 0.2248796875 0.828125
vt 0.18137031250000002 0.8030046875
vt 0.25 0.734375
vt 0 0.8811296875
vt 0.025120312500000005 0.8376203125
vt 0.09375 0.90625
vt 0.343828515625 0.53125
vt 0.394069140625 0.53125
vt 0.394069140625 0.65625
vt 0.343828515625 0.65625
vt 0.18137031250000002 0.8030046875
vt 0.15625 0.7594953125
vt 0.25 0.734375
vt 0 0.9313703125
vt 0 0.8811296875
vt 0.09375 0.90625
vt 0.394069140625 0.53125
vt 0.444309765625 0.53125
vt 0.444309765625 0.65625
vt 0.394069140625 0.65625
vt 0.15625 0.7594953125
vt 0.15625 0.7092546875
vt 0.25 0.734375
vt 0.025120312500000005 0.9748796875
vt 0 0.9313703125
vt 0.09375 0.90625
vt 0.444309765625 0.53125
vt 0.494550390625 0.53125
vt 0.494550390625 0.65625
vt 0.444309765625 0.65625
vt 0.15625 0.7092546875
vt 0.18137031250000002 0.6657453125
vt 0.25 0.734375
vt 0.06862968750000001 1
vt 0.025120312500000005 0.9748796875
vt 0.09375 0.90625
vt 0.00007851562499999742 0.53125
vt 0.050319140625 0.53125
vt 0.050319140625 0.65625
vt 0.00007851562499999742 0.65625
vt 0.18137031250000002 0.6657453125
vt 0.2248796875 0.640625
vt 0.25 0.734375
vt 0.11887031249999999 1
vt 0.06862968750000001 1
vt 0.09375 0.90625
vt 0.050319140625 0.53125
vt 0.10055976562499999 0.53125
vt 0.10055976562499999 0.65625
vt 0.050319140625 0.65625
vt 0.2248796875 0.640625
vt 0.2751203125 0.640625
vt 0.25 0.734375
vn 0 -1 0
vn 0.5 0 0.8660254037844388
vn 0 1 0
vn 0 -1 0
vn 0.8660254037844386 0 0.5000000000000002
vn 0 1 0
vn 0 -1 0
vn 1 0 0
vn 0 1 0
vn 0 -1 0
vn 0.8660254037844387 0 -0.5000000000000001
vn 0 1 0
vn 0 -1 0
vn 0.49999999999999983 0 -0.8660254037844389
vn 0 1 0
vn 0 -1 0
vn 5.524544980845172e-16 0 -1
vn 0 1 0
vn 0 -1 0
vn -0.4999999999999996 0 -0.8660254037844389
vn 0 1 0
vn 0 -1 0
vn -0.866025403784439 0 -0.49999999999999944
vn 0 1 0
vn 0 -1 0
vn -1 0 -5.524544980845176e-16
vn 0 1 0
vn 0 -1 0
vn -0.8660254037844388 0 0.4999999999999996
vn 0 1 0
vn 0 -1 0
vn -0.5000000000000001 0 0.8660254037844386
vn 0 1 0
vn 0 -1 0
vn 0 0 1
vn 0 1 0
usemtl m_9db90d76-22c6-acbf-af43-81f2c7778fcd
f 31/121/37 29/122/37 27/123/37
f 29/124/38 31/125/38 32/126/38 30/127/38
f 30/128/39 32/129/39 28/130/39
f 33/131/40 31/132/40 27/133/40
f 31/134/41 33/135/41 34/136/41 32/137/41
f 32/138/42 34/139/42 28/140/42
f 35/141/43 33/142/43 27/143/43
f 33/144/44 35/145/44 36/146/44 34/147/44
f 34/148/45 36/149/45 28/150/45
f 37/151/46 35/152/46 27/153/46
f 35/154/47 37/155/47 38/156/47 36/157/47
f 36/158/48 38/159/48 28/160/48
f 39/161/49 37/162/49 27/163/49
f 37/164/50 39/165/50 40/166/50 38/167/50
f 38/168/51 40/169/51 28/170/51
f 41/171/52 39/172/52 27/173/52
f 39/174/53 41/175/53 42/176/53 40/177/53
f 40/178/54 42/179/54 28/180/54
f 43/181/55 41/182/55 27/183/55
f 41/184/56 43/185/56 44/186/56 42/187/56
f 42/188/57 44/189/57 28/190/57
f 45/191/58 43/192/58 27/193/58
f 43/194/59 45/195/59 46/196/59 44/197/59
f 44/198/60 46/199/60 28/200/60
f 47/201/61 45/202/61 27/203/61
f 45/204/62 47/205/62 48/206/62 46/207/62
f 46/208/63 48/209/63 28/210/63
f 49/211/64 47/212/64 27/213/64
f 47/214/65 49/215/65 50/216/65 48/217/65
f 48/218/66 50/219/66 28/220/66
f 51/221/67 49/222/67 27/223/67
f 49/224/68 51/225/68 52/226/68 50/227/68
f 50/228/69 52/229/69 28/230/69
f 29/231/70 51/232/70 27/233/70
f 51/234/71 29/235/71 30/236/71 52/237/71
f 52/238/72 30/239/72 28/240/72
o Joint
v -3.1136062389327304e-18 5.953125 1.6813473690236744e-17
v -3.1136062389327304e-18 6.046875 1.6813473690236744e-17
v 0.11722777168861614 5.953125 0.4375
v 0.11722777168861614 6.046875 0.4375
v 0.3202722283113838 5.953125 0.3202722283113838
v 0.3202722283113838 6.046875 0.3202722283113838
v 0.4375 5.953125 0.11722777168861616
v 0.4375 6.046875 0.11722777168861616
v 0.4375 5.953125 -0.11722777168861616
v 0.4375 6.046875 -0.11722777168861616
v 0.3202722283113838 5.953125 -0.3202722283113838
v 0.3202722283113838 6.046875 -0.3202722283113838
v 0.1172277716886163 5.953125 -0.4374999999999998
v 0.1172277716886163 6.046875 -0.4374999999999998
v -0.11722777168861599 5.953125 -0.4375
v -0.11722777168861599 6.046875 -0.4375
v -0.3202722283113838 5.953125 -0.3202722283113838
v -0.3202722283113838 6.046875 -0.3202722283113838
v -0.4374999999999999 5.953125 -0.11722777168861608
v -0.4374999999999999 6.046875 -0.11722777168861608
v -0.4375 5.953125 0.11722777168861596
v -0.4375 6.046875 0.11722777168861596
v -0.3202722283113839 5.953125 0.3202722283113837
v -0.3202722283113839 6.046875 0.3202722283113837
v -0.11722777168861614 5.953125 0.4375
v -0.11722777168861614 6.046875 0.4375
vt 0.16237968749999998 0.9748796875
vt 0.11887031249999999 1
vt 0.09375 0.90625
vt 0.10055976562499999 0.53125
vt 0.150800390625 0.53125
vt 0.150800390625 0.65625
vt 0.10055976562499999 0.65625
vt 0.2751203125 0.640625
vt 0.3186296875 0.6657453125
vt 0.25 0.734375
vt 0.1875 0.9313703125
vt 0.16237968749999998 0.9748796875
vt 0.09375 0.90625
vt 0.203203515625 0.875
vt 0.253444140625 0.875
vt 0.253444140625 1
vt 0.203203515625 1
vt 0.3186296875 0.6657453125
vt 0.34375 0.7092546875
vt 0.25 0.734375
vt 0.1875 0.8811296875
vt 0.1875 0.9313703125
vt 0.09375 0.90625
vt 0.253444140625 0.875
vt 0.303684765625 0.875
vt 0.303684765625 1
vt 0.253444140625 1
vt 0.34375 0.7092546875
vt 0.34375 0.7594953125
vt 0.25 0.734375
vt 0.16237968749999998 0.8376203125
vt 0.1875 0.8811296875
vt 0.09375 0.90625
vt 0.303684765625 0.875
vt 0.353925390625 0.875
vt 0.353925390625 1
vt 0.303684765625 1
vt 0.34375 0.7594953125
vt 0.3186296875 0.8030046875
vt 0.25 0.734375
vt 0.11887031249999999 0.8125
vt 0.16237968749999998 0.8376203125
vt 0.09375 0.90625
vt 0.359453515625 0.734375
vt 0.409694140625 0.734375
vt 0.409694140625 0.859375
vt 0.359453515625 0.859375
vt 0.3186296875 0.8030046875
vt 0.2751203125 0.828125
vt 0.25 0.734375
vt 0.06862968750000001 0.8125
vt 0.11887031249999999 0.8125
vt 0.09375 0.90625
vt 0.409694140625 0.734375
vt 0.459934765625 0.734375
vt 0.459934765625 0.859375
vt 0.409694140625 0.859375
vt 0.2751203125 0.828125
vt 0.2248796875 0.828125
vt 0.25 0.734375
vt 0.025120312500000005 0.8376203125
vt 0.06862968750000001 0.8125
vt 0.09375 0.90625
vt 0.459934765625 0.734375
vt 0.510175390625 0.734375
vt 0.510175390625 0.859375
vt 0.459934765625 0.859375
vt 0.2248796875 0.828125
vt 0.18137031250000002 0.8030046875
vt 0.25 0.734375
vt 0 0.8811296875
vt 0.025120312500000005 0.8376203125
vt 0.09375 0.90625
vt 0.343828515625 0.53125
vt 0.394069140625 0.53125
vt 0.394069140625 0.65625
vt 0.343828515625 0.65625
vt 0.18137031250000002 0.8030046875
vt 0.15625 0.7594953125
vt 0.25 0.734375
vt 0 0.9313703125
vt 0 0.8811296875
vt 0.09375 0.90625
vt 0.394069140625 0.53125
vt 0.444309765625 0.53125
vt 0.444309765625 0.65625
vt 0.394069140625 0.65625
vt 0.15625 0.7594953125
vt 0.15625 0.7092546875
vt 0.25 0.734375
vt 0.025120312500000005 0.9748796875
vt 0 0.9313703125
vt 0.09375 0.90625
vt 0.444309765625 0.53125
vt 0.494550390625 0.53125
vt 0.494550390625 0.65625
vt 0.444309765625 0.65625
vt 0.15625 0.7092546875
vt 0.18137031250000002 0.6657453125
vt 0.25 0.734375
vt 0.06862968750000001 1
vt 0.025120312500000005 0.9748796875
vt 0.09375 0.90625
vt 0.00007851562499999742 0.53125
vt 0.050319140625 0.53125
vt 0.050319140625 0.65625
vt 0.00007851562499999742 0.65625
vt 0.18137031250000002 0.6657453125
vt 0.2248796875 0.640625
vt 0.25 0.734375
vt 0.11887031249999999 1
vt 0.06862968750000001 1
vt 0.09375 0.90625
vt 0.050319140625 0.53125
vt 0.10055976562499999 0.53125
vt 0.10055976562499999 0.65625
vt 0.050319140625 0.65625
vt 0.2248796875 0.640625
vt 0.2751203125 0.640625
vt 0.25 0.734375
vn 0 -1 0
vn 0.5 0 0.8660254037844388
vn 0 1 0
vn 0 -1 0
vn 0.8660254037844388 0 0.5
vn 0 1 0
vn 0 -1 0
vn 1 0 0
vn 0 1 0
vn 0 -1 0
vn 0.8660254037844388 0 -0.5
vn 0 1 0
vn 0 -1 0
vn 0.4999999999999996 0 -0.8660254037844388
vn 0 1 0
vn 0 -1 0
vn 9.470648538591722e-16 0 -1
vn 0 1 0
vn 0 -1 0
vn -0.49999999999999967 0 -0.8660254037844388
vn 0 1 0
vn 0 -1 0
vn -0.866025403784439 0 -0.4999999999999996
vn 0 1 0
vn 0 -1 0
vn -1 0 -4.735324269295866e-16
vn 0 1 0
vn 0 -1 0
vn -0.866025403784439 0 0.4999999999999996
vn 0 1 0
vn 0 -1 0
vn -0.5000000000000002 0 0.8660254037844387
vn 0 1 0
vn 0 -1 0
vn 0 0 1
vn 0 1 0
usemtl m_9db90d76-22c6-acbf-af43-81f2c7778fcd
f 57/241/73 55/242/73 53/243/73
f 55/244/74 57/245/74 58/246/74 56/247/74
f 56/248/75 58/249/75 54/250/75
f 59/251/76 57/252/76 53/253/76
f 57/254/77 59/255/77 60/256/77 58/257/77
f 58/258/78 60/259/78 54/260/78
f 61/261/79 59/262/79 53/263/79
f 59/264/80 61/265/80 62/266/80 60/267/80
f 60/268/81 62/269/81 54/270/81
f 63/271/82 61/272/82 53/273/82
f 61/274/83 63/275/83 64/276/83 62/277/83
f 62/278/84 64/279/84 54/280/84
f 65/281/85 63/282/85 53/283/85
f 63/284/86 65/285/86 66/286/86 64/287/86
f 64/288/87 66/289/87 54/290/87
f 67/291/88 65/292/88 53/293/88
f 65/294/89 67/295/89 68/296/89 66/297/89
f 66/298/90 68/299/90 54/300/90
f 69/301/91 67/302/91 53/303/91
f 67/304/92 69/305/92 70/306/92 68/307/92
f 68/308/93 70/309/93 54/310/93
f 71/311/94 69/312/94 53/313/94
f 69/314/95 71/315/95 72/316/95 70/317/95
f 70/318/96 72/319/96 54/320/96
f 73/321/97 71/322/97 53/323/97
f 71/324/98 73/325/98 74/326/98 72/327/98
f 72/328/99 74/329/99 54/330/99
f 75/331/100 73/332/100 53/333/100
f 73/334/101 75/335/101 76/336/101 74/337/101
f 74/338/102 76/339/102 54/340/102
f 77/341/103 75/342/103 53/343/103
f 75/344/104 77/345/104 78/346/104 76/347/104
f 76/348/105 78/349/105 54/350/105
f 55/351/106 77/352/106 53/353/106
f 77/354/107 55/355/107 56/356/107 78/357/107
f 78/358/108 56/359/108 54/360/108