{"accessors":[{"bufferView":0,"byteOffset":0,"componentType":5126,"count":345126,"max":[3.145829,12.095531,2.608777],"min":[-3.297778,-17.833073,-2.556639],"normalized":false,"type":"VEC3"},{"bufferView":1,"byteOffset":0,"componentType":5126,"count":345126,"max":[1,1,1],"min":[-1,-1,-1],"normalized":false,"type":"VEC3"},{"bufferView":2,"byteOffset":0,"componentType":5126,"count":345126,"max":[0.510175,0.46875],"min":[0,0],"normalized":false,"type":"VEC2"},{"bufferView":3,"byteOffset":0,"componentType":5125,"count":345126,"max":[345125],"min":[0],"normalized":false,"type":"SCALAR"}],"asset":{"generator":"Godot Engine v4.1.3.stable.official@f06b6836a9ecfd0e6ec96d8bcf0fe9c9bc10dcbf","version":"2.0"},"bufferViews":[{"buffer":0,"byteLength":4141512,"byteOffset":0},{"buffer":0,"byteLength":4141512,"byteOffset":4141512},{"buffer":0,"byteLength":2761008,"byteOffset":8283024},{"buffer":0,"byteLength":1380504,"byteOffset":11044032}],"buffers":[{"byteLength":12424536,"uri":"PipeWall10.bin"}],"materials":[{"extensions":{},"pbrMetallicRoughness":{"baseColorFactor":[0.99999988079071,0.99999988079071,0.99999988079071,1],"metallicFactor":0,"roughnessFactor":1}}],"meshes":[{"extras":{"targetNames":[]},"primitives":[{"attributes":{"NORMAL":1,"POSITION":0,"TEXCOORD_0":2},"indices":3,"material":0,"mode":4}]}],"nodes":[{"children":[1,54,107],"extensions":{},"mesh":0,"name":"WallBlock2","translation":[0,-4.30259990692139,0]},{"children":[2,8,14,20,26,33,40,47],"extensions":{},"name":"Top"},{"children":[3,4,5,6,7],"extensions":{},"name":"CurveLong1","translation":[0.785799026489258,0,-0.42419299483299]},{"extensions":{},"name":"LongPipe1","translation":[-2.25417995452881,1.55597996711731,-1.51049995422363]},{"extensions":{},"name":"CurvePipe2","rotation":[0,1,0,-0.0000000437114],"translation":[-2.25417995452881,7.39933013916016,-1.51049995422363]},{"extensions":{},"name":"LongPipe2","rotation":[0,0.70710676908493,0,0.70710676908493],"translation":[1.92253005504608,1.55597996711731,2.59479999542236]},{"extensions":{},"name":"CurvePipe3","rotation":[0,0.70710676908493,0,0.70710676908493],"translation":[1.92253005504608,7.39933013916016,2.59479999542236]},{"extensions":{},"name":"CurvePipe4","rotation":[0.5,-0.5,-0.5,0.5],"translation":[-2.25200009346008,9.61958026885986,0.376720011234283]},{"children":[9,10,11,12,13],"extensions":{},"name":"Curve3","rotation":[0,-0.70710676908493,0,0.70710676908493],"translation":[3.6953399181366,1.55597996711731,-1.3578200340271]},{"extensions":{},"name":"LongPipe12","translation":[0,0,1.33817005157471]},{"extensions":{},"name":"CurvePipe22","rotation":[0,1,0,-0.0000000437114],"translation":[0,5.84334993362427,1.33817005157471]},{"extensions":{},"name":"LongPipe22","rotation":[0,0.70710676908493,0,0.70710676908493],"translation":[2.80994009971619,0,4.105299949646]},{"extensions":{},"name":"CurvePipe32","rotation":[0,0.70710676908493,0,0.70710676908493],"translation":[2.80994009971619,5.84334993362427,4.105299949646]},{"extensions":{},"name":"CurvePipe42","rotation":[0.5,-0.5,-0.5,0.5],"translation":[0.00217627990059555,8.06359958648682,1.88722002506256]},{"children":[15,16,17,18,19],"extensions":{},"name":"Curve4","rotation":[0,-0.70710676908493,0,0.70710676908493],"scale":[0.800000011920929,0.800000011920929,0.800000011920929],"translation":[1.77760994434357,-0.31583023071289,-1.18197000026703]},{"extensions":{},"name":"LongPipe13","translation":[0,0,1.33817005157471]},{"extensions":{},"name":"CurvePipe23","rotation":[0,1,0,-0.0000000437114],"translation":[0,5.84334993362427,1.33817005157471]},{"extensions":{},"name":"LongPipe23","rotation":[0,0.70710676908493,0,0.70710676908493],"translation":[2.80994009971619,0,4.105299949646]},{"extensions":{},"name":"CurvePipe33","rotation":[0,0.70710676908493,0,0.70710676908493],"translation":[2.80994009971619,5.84334993362427,4.105299949646]},{"extensions":{},"name":"CurvePipe43","rotation":[0.5,-0.5,-0.5,0.5],"translation":[0.00217627990059555,8.06359958648682,1.88722002506256]},{"children":[21,22,23,24,25],"extensions":{},"name":"Curve2","rotation":[0,1,0,-0.00000004371138],"scale":[0.800000011920929,0.800000011920929,0.800000011920929],"translation":[0.510271012783051,2.1452100276947,2.21136999130249]},{"extensions":{},"name":"LongPipe14"},{"extensions":{},"name":"CurvePipe24","rotation":[0,1,0,-0.0000000437114],"translation":[0,5.84334993362427,0]},{"extensions":{},"name":"LongPipe24","rotation":[0,0.70710676908493,0,0.70710676908493],"translation":[4.17671012878418,0,4.105299949646]},{"extensions":{},"name":"CurvePipe34","rotation":[0,0.70710676908493,0,0.70710676908493],"translation":[4.17671012878418,5.84334993362427,4.105299949646]},{"extensions":{},"name":"CurvePipe44","rotation":[0.5,-0.5,-0.5,0.5],"translation":[0.00217627990059555,8.06359958648682,1.88722002506256]},{"children":[27,28,29,30,31,32],"extensions":{},"name":"Arch1","rotation":[0,0.70710676908493,0,0.70710676908493],"translation":[-0.5443109869957,-2.42611980438232,-0.00962665956467]},{"extensions":{},"name":"LongPipe15","translation":[0,5.35518980026245,-2.22333002090454]},{"extensions":{},"name":"LongPipe25","rotation":[0,1,0,0.000000043711398944879],"translation":[-0.00000333786011,5.35518980026245,1.94410002231598]},{"extensions":{},"name":"LongPipe3","translation":[0,-0.47690400481224,-2.22333002090454]},{"extensions":{},"name":"LongPipe4","rotation":[0,1,0,0.000000043711398944879],"translation":[-0.0000052452101,-0.47690400481224,1.94410002231598]},{"extensions":{},"name":"CurvePipe25","rotation":[0,1,0,-0.0000000437114],"translation":[0,11.1984996795654,-2.22333002090454]},{"extensions":{},"name":"CurvePipe35","translation":[-0.00000333786011,11.1984996795654,1.94410002231598]},{"children":[34,35,36,37,38,39],"extensions":{},"name":"Arch4","rotation":[0,0.939791142940521,0,0.341749340295792],"scale":[0.800000250339508,0.800000011920929,0.800000250339508],"translation":[-1.79430997371674,-3.25277996063232,0.849816977977753]},{"extensions":{},"name":"LongPipe16","translation":[0,5.35518980026245,-2.22333002090454]},{"extensions":{},"name":"LongPipe26","rotation":[0,1,0,0.000000043711398944879],"translation":[-0.00000333786011,5.35518980026245,1.94410002231598]},{"extensions":{},"name":"LongPipe32","translation":[0,-0.47690400481224,-2.22333002090454]},{"extensions":{},"name":"LongPipe42","rotation":[0,1,0,0.000000043711398944879],"translation":[-0.0000052452101,-0.47690400481224,1.94410002231598]},{"extensions":{},"name":"CurvePipe26","rotation":[0,1,0,-0.0000000437114],"translation":[0,11.1984996795654,-2.22333002090454]},{"extensions":{},"name":"CurvePipe36","translation":[-0.00000333786011,11.1984996795654,1.94410002231598]},{"children":[41,42,43,44,45,46],"extensions":{},"name":"Arch2","scale":[0.800000011920929,0.800000011920929,0.800000011920929],"translation":[1.59210002422333,1.01172995567322,-0.42797499895096]},{"extensions":{},"name":"LongPipe17","translation":[0,5.35518980026245,-2.22333002090454]},{"extensions":{},"name":"LongPipe27","rotation":[0,1,0,0.000000043711398944879],"translation":[-0.00000333786011,5.35518980026245,1.94410002231598]},{"extensions":{},"name":"LongPipe33","translation":[0,-0.47690400481224,-2.22333002090454]},{"extensions":{},"name":"LongPipe43","rotation":[0,1,0,0.000000043711398944879],"translation":[-0.0000052452101,-0.47690400481224,1.94410002231598]},{"extensions":{},"name":"CurvePipe27","rotation":[0,1,0,-0.0000000437114],"translation":[0,11.1984996795654,-2.22333002090454]},{"extensions":{},"name":"CurvePipe37","translation":[-0.00000333786011,11.1984996795654,1.94410002231598]},{"children":[48,49,50,51,52,53],"extensions":{},"name":"Arch3","scale":[0.800000011920929,0.800000011920929,0.800000011920929],"translation":[-0.05257049947977,-3.55154991149902,-0.42797499895096]},{"extensions":{},"name":"LongPipe18","translation":[0,5.35518980026245,-2.22333002090454]},{"extensions":{},"name":"LongPipe28","rotation":[0,1,0,0.000000043711398944879],"translation":[-0.00000333786011,5.35518980026245,1.94410002231598]},{"extensions":{},"name":"LongPipe34","translation":[0,-0.47690400481224,-2.22333002090454]},{"extensions":{},"name":"LongPipe44","rotation":[0,1,0,0.000000043711398944879],"translation":[-0.0000052452101,-0.47690400481224,1.94410002231598]},{"extensions":{},"name":"CurvePipe28","rotation":[0,1,0,-0.0000000437114],"translation":[0,11.1984996795654,-2.22333002090454]},{"extensions":{},"name":"CurvePipe38","translation":[-0.00000333786011,11.1984996795654,1.94410002231598]},{"children":[55,61,67,73,79,86,93,100],"extensions":{},"name":"Mid","translation":[0,-7,0]},{"children":[56,57,58,59,60],"extensions":{},"name":"CurveLong12","translation":[0.785799026489258,0,-0.42419299483299]},{"extensions":{},"name":"LongPipe19","translation":[-2.25417995452881,1.55597996711731,-1.51049995422363]},{"extensions":{},"name":"CurvePipe29","rotation":[0,1,0,-0.0000000437114],"translation":[-2.25417995452881,7.39933013916016,-1.51049995422363]},{"extensions":{},"name":"LongPipe29","rotation":[0,0.70710676908493,0,0.70710676908493],"translation":[1.92253005504608,1.55597996711731,2.59479999542236]},{"extensions":{},"name":"CurvePipe39","rotation":[0,0.70710676908493,0,0.70710676908493],"translation":[1.92253005504608,7.39933013916016,2.59479999542236]},{"extensions":{},"name":"CurvePipe45","rotation":[0.5,-0.5,-0.5,0.5],"translation":[-2.25200009346008,9.61958026885986,0.376720011234283]},{"children":[62,63,64,65,66],"extensions":{},"name":"Curve32","rotation":[0,-0.70710676908493,0,0.70710676908493],"translation":[3.6953399181366,1.55597996711731,-1.3578200340271]},{"extensions":{},"name":"LongPipe110","translation":[0,0,1.33817005157471]},{"extensions":{},"name":"CurvePipe210","rotation":[0,1,0,-0.0000000437114],"translation":[0,5.84334993362427,1.33817005157471]},{"extensions":{},"name":"LongPipe210","rotation":[0,0.70710676908493,0,0.70710676908493],"translation":[2.80994009971619,0,4.105299949646]},{"extensions":{},"name":"CurvePipe310","rotation":[0,0.70710676908493,0,0.70710676908493],"translation":[2.80994009971619,5.84334993362427,4.105299949646]},{"extensions":{},"name":"CurvePipe46","rotation":[0.5,-0.5,-0.5,0.5],"translation":[0.00217627990059555,8.06359958648682,1.88722002506256]},{"children":[68,69,70,71,72],"extensions":{},"name":"Curve42","rotation":[0,-0.70710676908493,0,0.70710676908493],"scale":[0.800000011920929,0.800000011920929,0.800000011920929],"translation":[1.77760994434357,-0.31583023071289,-1.18197000026703]},{"extensions":{},"name":"LongPipe111","translation":[0,0,1.33817005157471]},{"extensions":{},"name":"CurvePipe211","rotation":[0,1,0,-0.0000000437114],"translation":[0,5.84334993362427,1.33817005157471]},{"extensions":{},"name":"LongPipe211","rotation":[0,0.70710676908493,0,0.70710676908493],"translation":[2.80994009971619,0,4.105299949646]},{"extensions":{},"name":"CurvePipe311","rotation":[0,0.70710676908493,0,0.70710676908493],"translation":[2.80994009971619,5.84334993362427,4.105299949646]},{"extensions":{},"name":"CurvePipe47","rotation":[0.5,-0.5,-0.5,0.5],"translation":[0.00217627990059555,8.06359958648682,1.88722002506256]},{"children":[74,75,76,77,78],"extensions":{},"name":"Curve22","rotation":[0,1,0,-0.00000004371138],"scale":[0.800000011920929,0.800000011920929,0.800000011920929],"translation":[0.510271012783051,2.1452100276947,2.21136999130249]},{"extensions":{},"name":"LongPipe112"},{"extensions":{},"name":"CurvePipe212","rotation":[0,1,0,-0.0000000437114],"translation":[0,5.84334993362427,0]},{"extensions":{},"name":"LongPipe212","rotation":[0,0.70710676908493,0,0.70710676908493],"translation":[4.17671012878418,0,4.105299949646]},{"extensions":{},"name":"CurvePipe312","rotation":[0,0.70710676908493,0,0.70710676908493],"translation":[4.17671012878418,5.84334993362427,4.105299949646]},{"extensions":{},"name":"CurvePipe48","rotation":[0.5,-0.5,-0.5,0.5],"translation":[0.00217627990059555,8.06359958648682,1.88722002506256]},{"children":[80,81,82,83,84,85],"extensions":{},"name":"Arch12","rotation":[0,0.70710676908493,0,0.70710676908493],"translation":[-0.5443109869957,-2.42611980438232,-0.00962665956467]},{"extensions":{},"name":"LongPipe113","translation":[0,5.35518980026245,-2.22333002090454]},{"extensions":{},"name":"LongPipe213","rotation":[0,1,0,0.000000043711398944879],"translation":[-0.00000333786011,5.35518980026245,1.94410002231598]},{"extensions":{},"name":"LongPipe35","translation":[0,-0.47690400481224,-2.22333002090454]},{"extensions":{},"name":"LongPipe45","rotation":[0,1,0,0.000000043711398944879],"translation":[-0.0000052452101,-0.47690400481224,1.94410002231598]},{"extensions":{},"name":"CurvePipe213","rotation":[0,1,0,-0.0000000437114],"translation":[0,11.1984996795654,-2.22333002090454]},{"extensions":{},"name":"CurvePipe313","translation":[-0.00000333786011,11.1984996795654,1.94410002231598]},{"children":[87,88,89,90,91,92],"extensions":{},"name":"Arch42","rotation":[0,0.939791142940521,0,0.341749340295792],"scale":[0.800000250339508,0.800000011920929,0.800000250339508],"translation":[-1.79430997371674,-3.25277996063232,0.849816977977753]},{"extensions":{},"name":"LongPipe114","translation":[0,5.35518980026245,-2.22333002090454]},{"extensions":{},"name":"LongPipe214","rotation":[0,1,0,0.000000043711398944879],"translation":[-0.00000333786011,5.35518980026245,1.94410002231598]},{"extensions":{},"name":"LongPipe36","translation":[0,-0.47690400481224,-2.22333002090454]},{"extensions":{},"name":"LongPipe46","rotation":[0,1,0,0.000000043711398944879],"translation":[-0.0000052452101,-0.47690400481224,1.94410002231598]},{"extensions":{},"name":"CurvePipe214","rotation":[0,1,0,-0.0000000437114],"translation":[0,11.1984996795654,-2.22333002090454]},{"extensions":{},"name":"CurvePipe314","translation":[-0.00000333786011,11.1984996795654,1.94410002231598]},{"children":[94,95,96,97,98,99],"extensions":{},"name":"Arch22","scale":[0.800000011920929,0.800000011920929,0.800000011920929],"translation":[1.59210002422333,1.01172995567322,-0.42797499895096]},{"extensions":{},"name":"LongPipe115","translation":[0,5.35518980026245,-2.22333002090454]},{"extensions":{},"name":"LongPipe215","rotation":[0,1,0,0.000000043711398944879],"translation":[-0.00000333786011,5.35518980026245,1.94410002231598]},{"extensions":{},"name":"LongPipe37","translation":[0,-0.47690400481224,-2.22333002090454]},{"extensions":{},"name":"LongPipe47","rotation":[0,1,0,0.000000043711398944879],"translation":[-0.0000052452101,-0.47690400481224,1.94410002231598]},{"extensions":{},"name":"CurvePipe215","rotation":[0,1,0,-0.0000000437114],"translation":[0,11.1984996795654,-2.22333002090454]},{"extensions":{},"name":"CurvePipe315","translation":[-0.00000333786011,11.1984996795654,1.94410002231598]},{"children":[101,102,103,104,105,106],"extensions":{},"name":"Arch32","scale":[0.800000011920929,0.800000011920929,0.800000011920929],"translation":[-0.05257049947977,-3.55154991149902,-0.42797499895096]},{"extensions":{},"name":"LongPipe116","translation":[0,5.35518980026245,-2.22333002090454]},{"extensions":{},"name":"LongPipe216","rotation":[0,1,0,0.000000043711398944879],"translation":[-0.00000333786011,5.35518980026245,1.94410002231598]},{"extensions":{},"name":"LongPipe38","translation":[0,-0.47690400481224,-2.22333002090454]},{"extensions":{},"name":"LongPipe48","rotation":[0,1,0,0.000000043711398944879],"translation":[-0.0000052452101,-0.47690400481224,1.94410002231598]},{"extensions":{},"name":"CurvePipe216","rotation":[0,1,0,-0.0000000437114],"translation":[0,11.1984996795654,-2.22333002090454]},{"extensions":{},"name":"CurvePipe316","translation":[-0.00000333786011,11.1984996795654,1.94410002231598]},{"children":[108,114,120,126,132,139,146,153],"extensions":{},"name":"Bot","translation":[0,-14,0]},{"children":[109,110,111,112,113],"extensions":{},"name":"CurveLong13","translation":[0.785799026489258,0,-0.42419299483299]},{"extensions":{},"name":"LongPipe117","translation":[-2.25417995452881,1.55597996711731,-1.51049995422363]},{"extensions":{},"name":"CurvePipe217","rotation":[0,1,0,-0.0000000437114],"translation":[-2.25417995452881,7.39933013916016,-1.51049995422363]},{"extensions":{},"name":"LongPipe217","rotation":[0,0.70710676908493,0,0.70710676908493],"translation":[1.92253005504608,1.55597996711731,2.59479999542236]},{"extensions":{},"name":"CurvePipe317","rotation":[0,0.70710676908493,0,0.70710676908493],"translation":[1.92253005504608,7.39933013916016,2.59479999542236]},{"extensions":{},"name":"CurvePipe49","rotation":[0.5,-0.5,-0.5,0.5],"translation":[-2.25200009346008,9.61958026885986,0.376720011234283]},{"children":[115,116,117,118,119],"extensions":{},"name":"Curve33","rotation":[0,-0.70710676908493,0,0.70710676908493],"translation":[3.6953399181366,1.55597996711731,-1.3578200340271]},{"extensions":{},"name":"LongPipe118","translation":[0,0,1.33817005157471]},{"extensions":{},"name":"CurvePipe218","rotation":[0,1,0,-0.0000000437114],"translation":[0,5.84334993362427,1.33817005157471]},{"extensions":{},"name":"LongPipe218","rotation":[0,0.70710676908493,0,0.70710676908493],"translation":[2.80994009971619,0,4.105299949646]},{"extensions":{},"name":"CurvePipe318","rotation":[0,0.70710676908493,0,0.70710676908493],"translation":[2.80994009971619,5.84334993362427,4.105299949646]},{"extensions":{},"name":"CurvePipe410","rotation":[0.5,-0.5,-0.5,0.5],"translation":[0.00217627990059555,8.06359958648682,1.88722002506256]},{"children":[121,122,123,124,125],"extensions":{},"name":"Curve43","rotation":[0,-0.70710676908493,0,0.70710676908493],"scale":[0.800000011920929,0.800000011920929,0.800000011920929],"translation":[1.77760994434357,-0.31583023071289,-1.18197000026703]},{"extensions":{},"name":"LongPipe119","translation":[0,0,1.33817005157471]},{"extensions":{},"name":"CurvePipe219","rotation":[0,1,0,-0.0000000437114],"translation":[0,5.84334993362427,1.33817005157471]},{"extensions":{},"name":"LongPipe219","rotation":[0,0.70710676908493,0,0.70710676908493],"translation":[2.80994009971619,0,4.105299949646]},{"extensions":{},"name":"CurvePipe319","rotation":[0,0.70710676908493,0,0.70710676908493],"translation":[2.80994009971619,5.84334993362427,4.105299949646]},{"extensions":{},"name":"CurvePipe411","rotation":[0.5,-0.5,-0.5,0.5],"translation":[0.00217627990059555,8.06359958648682,1.88722002506256]},{"children":[127,128,129,130,131],"extensions":{},"name":"Curve23","rotation":[0,1,0,-0.00000004371138],"scale":[0.800000011920929,0.800000011920929,0.800000011920929],"translation":[0.510271012783051,2.1452100276947,2.21136999130249]},{"extensions":{},"name":"LongPipe120"},{"extensions":{},"name":"CurvePipe220","rotation":[0,1,0,-0.0000000437114],"translation":[0,5.84334993362427,0]},{"extensions":{},"name":"LongPipe220","rotation":[0,0.70710676908493,0,0.70710676908493],"translation":[4.17671012878418,0,4.105299949646]},{"extensions":{},"name":"CurvePipe320","rotation":[0,0.70710676908493,0,0.70710676908493],"translation":[4.17671012878418,5.84334993362427,4.105299949646]},{"extensions":{},"name":"CurvePipe412","rotation":[0.5,-0.5,-0.5,0.5],"translation":[0.00217627990059555,8.06359958648682,1.88722002506256]},{"children":[133,134,135,136,137,138],"extensions":{},"name":"Arch13","rotation":[0,0.70710676908493,0,0.70710676908493],"translation":[-0.5443109869957,-2.42611980438232,-0.00962665956467]},{"extensions":{},"name":"LongPipe121","translation":[0,5.35518980026245,-2.22333002090454]},{"extensions":{},"name":"LongPipe221","rotation":[0,1,0,0.000000043711398944879],"translation":[-0.00000333786011,5.35518980026245,1.94410002231598]},{"extensions":{},"name":"LongPipe39","translation":[0,-0.47690400481224,-2.22333002090454]},{"extensions":{},"name":"LongPipe49","rotation":[0,1,0,0.000000043711398944879],"translation":[-0.0000052452101,-0.47690400481224,1.94410002231598]},{"extensions":{},"name":"CurvePipe221","rotation":[0,1,0,-0.0000000437114],"translation":[0,11.1984996795654,-2.22333002090454]},{"extensions":{},"name":"CurvePipe321","translation":[-0.00000333786011,11.1984996795654,1.94410002231598]},{"children":[140,141,142,143,144,145],"extensions":{},"name":"Arch43","rotation":[0,0.939791142940521,0,0.341749340295792],"scale":[0.800000250339508,0.800000011920929,0.800000250339508],"translation":[-1.79430997371674,-3.25277996063232,0.849816977977753]},{"extensions":{},"name":"LongPipe122","translation":[0,5.35518980026245,-2.22333002090454]},{"extensions":{},"name":"LongPipe222","rotation":[0,1,0,0.000000043711398944879],"translation":[-0.00000333786011,5.35518980026245,1.94410002231598]},{"extensions":{},"name":"LongPipe310","translation":[0,-0.47690400481224,-2.22333002090454]},{"extensions":{},"name":"LongPipe410","rotation":[0,1,0,0.000000043711398944879],"translation":[-0.0000052452101,-0.47690400481224,1.94410002231598]},{"extensions":{},"name":"CurvePipe222","rotation":[0,1,0,-0.0000000437114],"translation":[0,11.1984996795654,-2.22333002090454]},{"extensions":{},"name":"CurvePipe322","translation":[-0.00000333786011,11.1984996795654,1.94410002231598]},{"children":[147,148,149,150,151,152],"extensions":{},"name":"Arch23","scale":[0.800000011920929,0.800000011920929,0.800000011920929],"translation":[1.59210002422333,1.01172995567322,-0.42797499895096]},{"extensions":{},"name":"LongPipe123","translation":[0,5.35518980026245,-2.22333002090454]},{"extensions":{},"name":"LongPipe223","rotation":[0,1,0,0.000000043711398944879],"translation":[-0.00000333786011,5.35518980026245,1.94410002231598]},{"extensions":{},"name":"LongPipe311","translation":[0,-0.47690400481224,-2.22333002090454]},{"extensions":{},"name":"LongPipe411","rotation":[0,1,0,0.000000043711398944879],"translation":[-0.0000052452101,-0.47690400481224,1.94410002231598]},{"extensions":{},"name":"CurvePipe223","rotation":[0,1,0,-0.0000000437114],"translation":[0,11.1984996795654,-2.22333002090454]},{"extensions":{},"name":"CurvePipe323","translation":[-0.00000333786011,11.1984996795654,1.94410002231598]},{"children":[154,155,156,157,158,159],"extensions":{},"name":"Arch33","scale":[0.800000011920929,0.800000011920929,0.800000011920929],"translation":[-0.05257049947977,-3.55154991149902,-0.42797499895096]},{"extensions":{},"name":"LongPipe124","translation":[0,5.35518980026245,-2.22333002090454]},{"extensions":{},"name":"LongPipe224","rotation":[0,1,0,0.000000043711398944879],"translation":[-0.00000333786011,5.35518980026245,1.94410002231598]},{"extensions":{},"name":"LongPipe312","translation":[0,-0.47690400481224,-2.22333002090454]},{"extensions":{},"name":"LongPipe412","rotation":[0,1,0,0.000000043711398944879],"translation":[-0.0000052452101,-0.47690400481224,1.94410002231598]},{"extensions":{},"name":"CurvePipe224","rotation":[0,1,0,-0.0000000437114],"translation":[0,11.1984996795654,-2.22333002090454]},{"extensions":{},"name":"CurvePipe324","translation":[-0.00000333786011,11.1984996795654,1.94410002231598]}],"scene":0,"scenes":[{"nodes":[0]}]}