# Blender 4.0.2
# www.blender.org
o Sphere.001
v -0.423281 0.221289 0.679868
v -0.547527 -0.142422 2.407841
v -0.547527 -0.456291 2.409967
v -0.423281 -0.763628 0.688506
v -0.222247 -0.661565 -0.000990
v -0.222247 -0.142422 0.947381
v -0.731284 0.221289 0.985678
v -1.045886 -0.142422 2.052052
v -1.045886 -0.456294 2.052052
v -0.731284 -0.763628 0.992273
v -0.801102 0.221289 0.578908
v -1.158855 -0.142422 0.681988
v -1.158855 -0.456294 0.681988
v -0.801102 -0.763628 0.581609
v -0.600068 0.221289 -0.468414
v -0.833574 -0.142423 -0.830812
v -0.833574 -0.456294 -0.830812
v -0.600068 -0.763628 -0.238838
v -0.281601 0.221289 -0.705657
v -0.049579 -0.249297 -2.408350
v -0.049579 -0.395707 -2.408350
v -0.222247 -0.763628 -0.628161
v -0.222247 -0.875834 -0.175667
v -0.222247 -0.456241 0.957489
v -0.414362 0.221289 -0.033299
v -0.002247 -0.456294 0.129158
v -0.002247 -0.763628 -1.168417
v -0.002247 -0.859196 -0.254968
v -0.002247 -0.342719 -0.193069
v -0.002247 -0.142422 0.107814
v -0.002247 0.081476 -1.599466
v -0.002247 0.221289 -0.152748
v -0.002247 -0.142423 -2.282533
v -0.002247 -0.456294 -2.282533
v 0.002247 -0.456294 0.129055
v -0.002247 0.069697 -0.080257
v -0.339329 0.144329 0.012475
v -0.146577 0.101652 -0.087750
v -0.207780 0.221290 -0.201176
v 0.002247 -0.456294 0.129158
v 0.002247 -0.142422 0.107814
v 0.002247 -0.142423 -2.282533
v 0.002247 -0.456294 -2.282533
v -0.002247 -0.585877 -0.438106
v -0.476812 0.108698 -1.147427
v -0.222247 -0.651211 0.047342
v -0.065921 -0.473778 -0.112383
v -0.281806 0.020559 0.471803
v -0.197489 0.005456 0.026446
v 0.423281 0.221289 0.679868
v 0.547527 -0.142422 2.407841
v 0.547527 -0.456291 2.409967
v 0.423281 -0.763628 0.688506
v 0.222247 -0.661565 -0.000990
v 0.222247 -0.142422 0.947381
v 0.731284 0.221289 0.985678
v 1.045886 -0.142422 2.052052
v 1.045886 -0.456294 2.052052
v 0.731284 -0.763628 0.992273
v 0.801102 0.221289 0.578908
v 1.158855 -0.142422 0.681988
v 1.158855 -0.456294 0.681988
v 0.801102 -0.763628 0.581609
v 0.600068 0.221289 -0.468414
v 0.833574 -0.142423 -0.830812
v 0.833574 -0.456294 -0.830812
v 0.600068 -0.763628 -0.238838
v 0.281601 0.221289 -0.705657
v 0.049579 -0.249297 -2.408350
v 0.049579 -0.395707 -2.408350
v 0.222247 -0.763628 -0.628161
v 0.222247 -0.875834 -0.175667
v 0.222247 -0.456241 0.957489
v 0.414362 0.221289 -0.033299
v 0.002247 -0.456294 0.129158
v 0.002247 -0.763628 -1.168417
v 0.002247 -0.859196 -0.254968
v 0.002247 -0.342719 -0.193069
v 0.002247 -0.142422 0.107814
v 0.002247 0.081476 -1.599466
v 0.002247 0.221289 -0.152748
v 0.002247 -0.142423 -2.282533
v 0.002247 -0.456294 -2.282533
v -0.002247 -0.456294 0.129055
v 0.002247 0.069697 -0.080257
v 0.339329 0.144329 0.012475
v 0.146577 0.101652 -0.087750
v 0.207780 0.221290 -0.201176
v -0.002247 -0.456294 0.129158
v -0.002247 -0.142422 0.107814
v -0.002247 -0.142423 -2.282533
v -0.002247 -0.456294 -2.282533
v 0.002247 -0.585877 -0.438106
v 0.476812 0.108698 -1.147427
v 0.222247 -0.651211 0.047342
v 0.065921 -0.473778 -0.112383
v 0.281806 0.020559 0.471803
v 0.197489 0.005456 0.026446
vn -0.5793 0.7658 -0.2793
vn 0.9668 0.0128 0.2551
vn -0.0216 -0.9077 -0.4190
vn -0.0093 -0.9173 -0.3980
vn 0.0845 -0.9344 -0.3460
vn -0.0265 -0.9102 -0.4134
vn 0.7690 -0.5892 -0.2481
vn -0.1273 -0.9720 -0.1975
vn -0.1274 -0.9720 -0.1975
vn 0.8249 0.3147 0.4696
vn 0.1873 0.6517 0.7350
vn 0.9360 -0.0000 -0.3521
vn 0.9285 -0.2451 0.2788
vn 0.9287 -0.2460 0.2776
vn 0.9288 -0.2470 0.2761
vn 0.9759 0.0042 0.2180
vn 0.7444 -0.6440 0.1765
vn 0.7626 -0.6339 0.1290
vn 0.7446 -0.6433 0.1782
vn 0.7451 -0.6429 0.1778
vn 0.7445 -0.6434 0.1781
vn 0.8147 0.5622 0.1417
vn 0.2624 -0.9276 0.2660
vn -0.5822 0.0028 0.8130
vn -0.0143 -0.9768 0.2136
vn -0.0155 0.9682 0.2496
vn -0.2603 -0.9645 0.0443
vn -0.9966 -0.0000 0.0822
vn -0.6122 -0.7882 0.0628
vn -0.6745 0.7350 0.0694
vn -0.4343 -0.8945 -0.1064
vn -0.9777 -0.0000 -0.2102
vn -0.6515 -0.7443 -0.1470
vn -0.7397 0.6555 -0.1521
vn -0.3719 -0.8552 -0.3609
vn -0.8955 -0.0000 -0.4450
vn -0.3692 -0.8963 -0.2457
vn -0.7384 0.5402 -0.4036
vn 0.0514 0.9983 -0.0260
vn 0.4335 0.7292 0.5295
vn 0.7133 0.7008 0.0089
vn 0.6902 0.7157 0.1064
vn -0.0825 0.5507 0.8306
vn -0.1389 0.9726 -0.1865
vn 0.0359 0.9645 -0.2617
vn -0.6916 0.6817 -0.2386
vn 0.3110 -0.6005 0.7367
vn 0.8543 -0.3689 0.3661
vn -0.8131 0.4980 -0.3014
vn -0.8142 0.4830 -0.3221
vn 0.6371 -0.7635 0.1056
vn 0.6282 0.7654 0.1398
vn 0.3322 0.6432 0.6899
vn 0.5793 0.7658 -0.2793
vn -0.9668 0.0128 0.2551
vn 0.0216 -0.9077 -0.4190
vn 0.0265 -0.9102 -0.4134
vn -0.0845 -0.9344 -0.3460
vn 0.0093 -0.9173 -0.3980
vn -0.7690 -0.5892 -0.2481
vn 0.1273 -0.9720 -0.1975
vn 0.1274 -0.9720 -0.1975
vn -0.8249 0.3147 0.4696
vn -0.1873 0.6517 0.7350
vn -0.9360 -0.0000 -0.3521
vn -0.9285 -0.2451 0.2788
vn -0.9288 -0.2470 0.2761
vn -0.9287 -0.2460 0.2776
vn -0.9759 0.0042 0.2180
vn -0.7444 -0.6440 0.1765
vn -0.7445 -0.6434 0.1781
vn -0.7451 -0.6429 0.1778
vn -0.7446 -0.6433 0.1782
vn -0.7626 -0.6339 0.1290
vn -0.8147 0.5622 0.1417
vn -0.2624 -0.9276 0.2660
vn 0.5822 0.0028 0.8130
vn 0.0143 -0.9768 0.2136
vn 0.0155 0.9682 0.2496
vn 0.2603 -0.9645 0.0443
vn 0.9966 -0.0000 0.0822
vn 0.6122 -0.7882 0.0628
vn 0.6745 0.7350 0.0694
vn 0.4343 -0.8945 -0.1064
vn 0.9777 -0.0000 -0.2102
vn 0.6515 -0.7443 -0.1470
vn 0.7397 0.6555 -0.1521
vn 0.3719 -0.8552 -0.3609
vn 0.8955 -0.0000 -0.4450
vn 0.3692 -0.8963 -0.2457
vn 0.7384 0.5402 -0.4036
vn -0.0514 0.9983 -0.0260
vn -0.4335 0.7292 0.5295
vn -0.7133 0.7008 0.0089
vn -0.6902 0.7157 0.1064
vn 0.0825 0.5507 0.8306
vn 0.1389 0.9726 -0.1865
vn -0.0359 0.9645 -0.2617
vn 0.6916 0.6817 -0.2386
vn -0.3110 -0.6005 0.7367
vn -0.8543 -0.3689 0.3661
vn 0.8131 0.4980 -0.3014
vn 0.8142 0.4830 -0.3221
vn -0.6371 -0.7635 0.1056
vn -0.6282 0.7654 0.1398
vn -0.3322 0.6432 0.6899
s 0
f 31//1 33//1 20//1 19//1
f 26//2 30//2 6//2 24//2
f 27//3 28//4 23//5 22//6
f 29//7 26//7 47//7 46//7 5//7
f 34//8 27//9 22//8 21//9
f 28//10 44//10 5//10
f 30//11 36//11 49//11
f 33//12 34//12 21//12 20//12
f 23//13 5//14 4//15
f 24//16 6//16 2//16 3//16
f 5//17 46//18 24//19 3//20 4//21
f 6//22 48//22 37//22 1//22 2//22
f 23//23 4//23 10//23
f 3//24 2//24 8//24 9//24
f 4//25 3//25 9//25 10//25
f 2//26 1//26 7//26 8//26
f 23//27 10//27 14//27
f 9//28 8//28 12//28 13//28
f 10//29 9//29 13//29 14//29
f 8//30 7//30 11//30 12//30
f 23//31 14//31 18//31
f 13//32 12//32 16//32 17//32
f 14//33 13//33 17//33 18//33
f 12//34 11//34 15//34 16//34
f 23//35 18//35 22//35
f 17//36 16//36 20//36 21//36
f 18//37 17//37 21//37 22//37
f 16//38 45//38 20//38
f 32//39 31//39 19//39 15//39 11//39 7//39 1//39 25//39 39//39
f 37//40 38//40 39//40 25//40
f 1//41 37//41 25//41
f 37//42 48//42 49//42
f 39//43 38//43 36//43 32//43
f 19//44 45//44 15//44
f 20//45 45//45 19//45
f 15//46 45//46 16//46
f 5//47 23//47 28//47
f 5//48 44//48 29//48
f 47//49 44//49 5//49 46//50
f 46//51 47//51 26//51 24//51
f 49//52 48//52 6//52 30//52
f 49//53 36//53 38//53 37//53
f 80//54 68//54 69//54 82//54
f 75//55 73//55 55//55 79//55
f 76//56 71//57 72//58 77//59
f 78//60 54//60 95//60 96//60 75//60
f 83//61 70//62 71//61 76//62
f 77//63 54//63 93//63
f 79//64 98//64 85//64
f 82//65 69//65 70//65 83//65
f 72//66 53//67 54//68
f 73//69 52//69 51//69 55//69
f 54//70 53//71 52//72 73//73 95//74
f 55//75 51//75 50//75 86//75 97//75
f 72//76 59//76 53//76
f 52//77 58//77 57//77 51//77
f 53//78 59//78 58//78 52//78
f 51//79 57//79 56//79 50//79
f 72//80 63//80 59//80
f 58//81 62//81 61//81 57//81
f 59//82 63//82 62//82 58//82
f 57//83 61//83 60//83 56//83
f 72//84 67//84 63//84
f 62//85 66//85 65//85 61//85
f 63//86 67//86 66//86 62//86
f 61//87 65//87 64//87 60//87
f 72//88 71//88 67//88
f 66//89 70//89 69//89 65//89
f 67//90 71//90 70//90 66//90
f 65//91 69//91 94//91
f 81//92 88//92 74//92 50//92 56//92 60//92 64//92 68//92 80//92
f 86//93 74//93 88//93 87//93
f 50//94 74//94 86//94
f 86//95 98//95 97//95
f 88//96 81//96 85//96 87//96
f 68//97 64//97 94//97
f 69//98 68//98 94//98
f 64//99 65//99 94//99
f 54//100 77//100 72//100
f 54//101 78//101 93//101
f 96//102 95//103 54//102 93//102
f 95//104 73//104 75//104 96//104
f 98//105 79//105 55//105 97//105
f 98//106 86//106 87//106 85//106
l 40 41
l 42 43
l 89 90
l 91 92
