# Blender 4.0.2
# www.blender.org
o Sphere.001
v -0.423281 0.809017 1.426350
v -0.547527 0.309017 2.470224
v -0.547527 -0.309017 2.470224
v -0.423281 -0.809017 1.426350
v -0.222247 -0.809017 1.370359
v -0.222247 0.309017 2.055039
v -0.731284 0.809017 1.167905
v -1.045886 0.309017 2.052052
v -1.045886 -0.309017 2.052052
v -0.731284 -0.809017 1.167905
v -0.801102 0.809017 0.633102
v -1.158855 0.309017 0.681988
v -1.158855 -0.309017 0.681988
v -0.801102 -0.809017 0.633102
v -0.600068 0.809017 -0.157527
v -0.833574 0.309017 -0.830812
v -0.833574 -0.309017 -0.830812
v -0.600068 -0.809017 -0.157527
v -0.222247 0.809017 -0.628161
v -0.222247 0.309017 -2.602122
v -0.222247 -0.309017 -2.602122
v -0.222247 -0.809017 -0.628161
v -0.222247 -1.000000 0.553039
v -0.222247 -0.309017 2.055039
v -0.222247 0.809017 1.370359
v -0.002247 -0.309017 1.831480
v -0.002247 -0.809017 -0.628161
v -0.002247 -1.000000 0.531599
v -0.002247 -0.809017 1.279212
v -0.002247 0.309017 1.831480
v -0.002247 0.809017 -0.628161
v -0.002247 0.809017 1.279212
v -0.002247 0.309017 -2.602122
v -0.002247 -0.309017 -2.602122
v 0.423281 0.809017 1.426350
v 0.547527 0.309017 2.470224
v 0.547527 -0.309017 2.470224
v 0.423281 -0.809017 1.426350
v 0.222247 -0.809017 1.370359
v 0.222247 0.309017 2.055039
v 0.731284 0.809017 1.167905
v 1.045886 0.309017 2.052052
v 1.045886 -0.309017 2.052052
v 0.731284 -0.809017 1.167905
v 0.801102 0.809017 0.633102
v 1.158855 0.309017 0.681988
v 1.158855 -0.309017 0.681988
v 0.801102 -0.809017 0.633102
v 0.600068 0.809017 -0.157527
v 0.833574 0.309017 -0.830812
v 0.833574 -0.309017 -0.830812
v 0.600068 -0.809017 -0.157527
v 0.222247 0.809017 -0.628161
v 0.222247 0.309017 -2.602122
v 0.222247 -0.309017 -2.602122
v 0.222247 -0.809017 -0.628161
v 0.222247 -1.000000 0.553039
v 0.222247 -0.309017 2.055039
v 0.222247 0.809017 1.370359
v 0.002247 -0.309017 1.831480
v 0.002247 -0.809017 -0.628161
v 0.002247 -1.000000 0.531599
v 0.002247 -0.809017 1.279212
v 0.002247 0.309017 1.831480
v 0.002247 0.809017 -0.628161
v 0.002247 0.809017 1.279212
v 0.002247 0.309017 -2.602122
v 0.002247 -0.309017 -2.602122
vn -0.0000 0.9694 -0.2455
vn 0.7128 -0.0000 0.7014
vn -0.0078 -0.9869 -0.1610
vn 0.4101 -0.7093 0.5734
vn -0.0000 -0.9694 -0.2455
vn 0.0606 -0.9697 0.2367
vn 0.4101 0.7093 0.5734
vn -0.0000 -0.0000 -1.0000
vn 0.0632 -0.9718 0.2271
vn 0.7872 -0.0000 0.6167
vn 0.4260 -0.7695 0.4758
vn 0.4260 0.7695 0.4758
vn -0.1496 -0.9725 0.1783
vn -0.6428 -0.0000 0.7660
vn -0.3177 -0.8693 0.3786
vn -0.3177 0.8693 0.3786
vn -0.3080 -0.9505 0.0402
vn -0.9966 -0.0000 0.0822
vn -0.7931 -0.6043 0.0761
vn -0.7931 0.6043 0.0761
vn -0.3225 -0.9430 -0.0820
vn -0.9777 -0.0000 -0.2102
vn -0.7928 -0.5819 -0.1812
vn -0.7928 0.5819 -0.1812
vn -0.1950 -0.9682 -0.1565
vn -0.9453 -0.0000 -0.3262
vn -0.5627 -0.7885 -0.2482
vn -0.5627 0.7885 -0.2482
vn -0.0000 1.0000 -0.0000
vn -0.7128 -0.0000 0.7014
vn 0.0078 -0.9869 -0.1610
vn -0.4101 -0.7093 0.5734
vn -0.0606 -0.9697 0.2367
vn -0.4101 0.7093 0.5734
vn -0.0632 -0.9718 0.2271
vn -0.7872 -0.0000 0.6167
vn -0.4260 -0.7695 0.4758
vn -0.4260 0.7695 0.4758
vn 0.1496 -0.9725 0.1783
vn 0.6428 -0.0000 0.7660
vn 0.3177 -0.8693 0.3786
vn 0.3177 0.8693 0.3786
vn 0.3080 -0.9505 0.0402
vn 0.9966 -0.0000 0.0822
vn 0.7931 -0.6043 0.0761
vn 0.7931 0.6043 0.0761
vn 0.3225 -0.9430 -0.0820
vn 0.9777 -0.0000 -0.2102
vn 0.7928 -0.5819 -0.1812
vn 0.7928 0.5819 -0.1812
vn 0.1950 -0.9682 -0.1565
vn 0.9453 -0.0000 -0.3262
vn 0.5627 -0.7885 -0.2482
vn 0.5627 0.7885 -0.2482
s 0
f 31//1 33//1 20//1 19//1
f 26//2 30//2 6//2 24//2
f 27//3 28//3 23//3 22//3
f 29//4 26//4 24//4 5//4
f 34//5 27//5 22//5 21//5
f 28//6 29//6 5//6 23//6
f 30//7 32//7 25//7 6//7
f 33//8 34//8 21//8 20//8
f 23//9 5//9 4//9
f 24//10 6//10 2//10 3//10
f 5//11 24//11 3//11 4//11
f 6//12 25//12 1//12 2//12
f 23//13 4//13 10//13
f 3//14 2//14 8//14 9//14
f 4//15 3//15 9//15 10//15
f 2//16 1//16 7//16 8//16
f 23//17 10//17 14//17
f 9//18 8//18 12//18 13//18
f 10//19 9//19 13//19 14//19
f 8//20 7//20 11//20 12//20
f 23//21 14//21 18//21
f 13//22 12//22 16//22 17//22
f 14//23 13//23 17//23 18//23
f 12//24 11//24 15//24 16//24
f 23//25 18//25 22//25
f 17//26 16//26 20//26 21//26
f 18//27 17//27 21//27 22//27
f 16//28 15//28 19//28 20//28
f 32//29 31//29 19//29 15//29 11//29 7//29 1//29 25//29
f 65//1 53//1 54//1 67//1
f 60//30 58//30 40//30 64//30
f 61//31 56//31 57//31 62//31
f 63//32 39//32 58//32 60//32
f 68//5 55//5 56//5 61//5
f 62//33 57//33 39//33 63//33
f 64//34 40//34 59//34 66//34
f 67//8 54//8 55//8 68//8
f 57//35 38//35 39//35
f 58//36 37//36 36//36 40//36
f 39//37 38//37 37//37 58//37
f 40//38 36//38 35//38 59//38
f 57//39 44//39 38//39
f 37//40 43//40 42//40 36//40
f 38//41 44//41 43//41 37//41
f 36//42 42//42 41//42 35//42
f 57//43 48//43 44//43
f 43//44 47//44 46//44 42//44
f 44//45 48//45 47//45 43//45
f 42//46 46//46 45//46 41//46
f 57//47 52//47 48//47
f 47//48 51//48 50//48 46//48
f 48//49 52//49 51//49 47//49
f 46//50 50//50 49//50 45//50
f 57//51 56//51 52//51
f 51//52 55//52 54//52 50//52
f 52//53 56//53 55//53 51//53
f 50//54 54//54 53//54 49//54
f 66//29 59//29 35//29 41//29 45//29 49//29 53//29 65//29
