# Blender 4.0.2
# www.blender.org
mtllib anticubo.mtl
o Cube
v -2.309532 0.095680 -4.470618
v -4.309482 2.095630 -4.470618
v -4.309482 0.095680 -6.470568
v -2.309532 2.095680 -4.470618
v -4.309482 2.095680 -6.470568
v -4.309482 0.095730 -4.470618
v -4.309482 0.095680 -4.470668
v -4.309482 2.095630 -6.470618
v -2.309532 0.095680 -6.470618
v -2.309532 2.095680 -6.470618
v -4.309482 0.095730 -6.470618
v -4.309482 2.095680 -4.470668
v -2.309482 0.095680 -6.470568
v -2.309482 2.095630 -4.470618
v -4.309432 0.095680 -4.470618
v -4.309432 2.095680 -4.470618
v -2.309482 0.095730 -4.470618
v -2.309482 2.095680 -6.470568
v -4.309432 0.095680 -6.470618
v -2.309482 2.095630 -6.470618
v -2.309482 0.095680 -4.470668
v -2.309482 2.095680 -4.470668
v -2.309482 0.095730 -6.470618
v -4.309432 2.095680 -6.470618
vn -0.0000 -0.0000 -1.0000
vn -1.0000 -0.0000 -0.0000
vn -0.0000 -1.0000 -0.0000
vn 1.0000 -0.0000 -0.0000
vn -0.0000 -0.0000 1.0000
vn -0.5774 -0.5774 0.5774
vn -0.5774 0.5774 0.5774
vn -0.5774 -0.5774 -0.5774
vn -0.5774 0.5774 -0.5774
vn 0.5774 -0.5774 0.5774
vn 0.5774 0.5774 0.5774
vn 0.5774 -0.5774 -0.5774
vn 0.5774 0.5774 -0.5774
vn -0.0000 1.0000 -0.0000
vt 0.375000 0.999994
vt 0.624994 0.750000
vt 0.375006 0.750000
vt 0.625000 0.999994
vt 0.625000 0.750006
vt 0.375006 1.000000
vt 0.624994 1.000000
vt 0.375000 0.750006
vt 0.375000 0.749994
vt 0.624994 0.500000
vt 0.375006 0.500000
vt 0.625000 0.749994
vt 0.625000 0.500006
vt 0.375000 0.500006
vt 0.874994 0.500000
vt 0.625006 0.500000
vt 0.875000 0.749994
vt 0.875000 0.500006
vt 0.625006 0.750000
vt 0.874994 0.750000
vt 0.375000 0.249994
vt 0.624994 0.000000
vt 0.375006 0.000000
vt 0.625000 0.249994
vt 0.625000 0.000006
vt 0.375006 0.250000
vt 0.624994 0.250000
vt 0.375000 0.000006
vt 0.375000 0.499994
vt 0.625000 0.499994
vt 0.625000 0.250006
vt 0.375000 0.250006
vt 0.374994 0.750000
vt 0.125000 0.749994
vt 0.125006 0.500000
vt 0.374994 0.500000
vt 0.125006 0.750000
vt 0.125000 0.500006
s 0
f 15/1/1 14/2/1 17/3/1 16/4/1 4/5/1 6/6/1 2/7/1 1/8/1
f 21/9/2 20/10/2 23/11/2 22/12/2 18/13/2 17/3/2 14/2/2 13/14/2
f 22/12/3 24/15/3 10/16/3 12/17/3 5/18/3 4/19/3 16/20/3 18/13/3
f 3/21/4 2/22/4 6/23/4 5/24/4 12/25/4 11/26/4 8/27/4 7/28/4
f 9/29/5 8/27/5 11/26/5 10/30/5 24/31/5 23/11/5 20/10/5 19/32/5
f 1/33/6 2/7/6 3/21/6
f 4/5/7 5/18/7 6/23/7
f 7/34/8 8/27/8 9/29/8
f 10/16/9 11/26/9 12/25/9
f 13/14/10 14/2/10 15/1/10
f 16/20/11 17/3/11 18/13/11
f 19/35/12 20/10/12 21/9/12
f 22/12/13 23/11/13 24/31/13
f 7/34/14 9/36/14 19/35/14 21/9/14 13/14/14 15/37/14 1/33/14 3/38/14
