# Blender 3.6.7
# www.blender.org
o BezierCurve
v -0.814891 0.000000 -0.250203
v -0.880273 0.044651 -0.214343
v -1.027257 0.086152 -0.133727
v -1.182104 0.117214 -0.048797
v -1.271074 0.130545 0.000000
v -1.437912 0.120379 0.091505
v -1.729608 0.088806 0.251492
v -2.006815 0.045466 0.403532
v -2.130184 0.000000 0.471196
v -0.528716 0.000000 0.194663
v -0.556899 0.033616 0.243218
v -0.620258 0.064862 0.352375
v -0.687007 0.088247 0.467371
v -0.725359 0.098284 0.533444
v -0.797276 0.090631 0.657345
v -0.923016 0.066860 0.873971
v -1.042509 0.034230 1.079837
v -1.095689 0.000000 1.171456
v -0.088035 0.000000 0.463083
v -0.083467 0.022582 0.500519
v -0.073197 0.043571 0.584679
v -0.062379 0.059281 0.673342
v -0.056163 0.066023 0.724284
v -0.044507 0.060882 0.819812
v -0.024127 0.044914 0.986832
v -0.004760 0.022994 1.145555
v 0.003860 0.000000 1.216193
v 0.706647 0.000000 0.138243
v 0.720625 0.011548 0.151530
v 0.752049 0.022281 0.181402
v 0.785154 0.030315 0.212872
v 0.804175 0.033762 0.230953
v 0.839843 0.031133 0.264860
v 0.902204 0.022968 0.324142
v 0.961468 0.011759 0.380479
v 0.987843 0.000000 0.405551
v 1.344907 0.000000 -0.846144
v 1.345752 0.000514 -0.845996
v 1.347651 0.000991 -0.845664
v 1.349652 0.001348 -0.845314
v 1.350802 0.001502 -0.845113
v 1.352958 0.001385 -0.844736
v 1.356727 0.001021 -0.844078
v 1.360310 0.000523 -0.843451
v 1.361904 0.000000 -0.843173
v -0.880273 -0.044651 -0.214343
v -1.027257 -0.086152 -0.133727
v -1.182104 -0.117214 -0.048797
v -1.271074 -0.130545 0.000000
v -1.437912 -0.120379 0.091505
v -1.729608 -0.088806 0.251492
v -2.006815 -0.045466 0.403532
v -0.556899 -0.033616 0.243218
v -0.620258 -0.064862 0.352375
v -0.687007 -0.088247 0.467371
v -0.725359 -0.098284 0.533444
v -0.797276 -0.090631 0.657345
v -0.923016 -0.066860 0.873971
v -1.042509 -0.034230 1.079837
v -0.083467 -0.022582 0.500519
v -0.073197 -0.043571 0.584679
v -0.062379 -0.059281 0.673342
v -0.056163 -0.066023 0.724284
v -0.044507 -0.060882 0.819812
v -0.024127 -0.044914 0.986832
v -0.004760 -0.022994 1.145555
v 0.720625 -0.011548 0.151530
v 0.752049 -0.022281 0.181402
v 0.785154 -0.030315 0.212872
v 0.804175 -0.033762 0.230953
v 0.839843 -0.031133 0.264860
v 0.902204 -0.022968 0.324142
v 0.961468 -0.011759 0.380479
v 1.345752 -0.000514 -0.845996
v 1.347651 -0.000991 -0.845664
v 1.349652 -0.001348 -0.845314
v 1.350802 -0.001502 -0.845113
v 1.352958 -0.001385 -0.844736
v 1.356727 -0.001021 -0.844078
v 1.360310 -0.000523 -0.843451
vn 0.3259 0.9221 -0.2087
vn 0.2595 0.9266 -0.2720
vn 0.7102 -0.0000 -0.7040
vn 0.8376 -0.0000 -0.5463
vn 0.1828 0.9769 -0.1104
vn 0.1496 0.9774 -0.1491
vn 0.1378 0.9875 -0.0763
vn 0.1147 0.9877 -0.1067
vn 0.0432 0.9990 0.0150
vn 0.0482 0.9988 0.0004
vn -0.0316 0.9958 0.0862
vn -0.0056 0.9961 0.0876
vn -0.0634 0.9912 0.1160
vn -0.0269 0.9920 0.1233
vn -0.1439 0.9647 0.2206
vn -0.0695 0.9694 0.2356
vn -0.5561 -0.0000 0.8311
vn -0.3472 -0.0000 0.9378
vn 0.0259 0.9429 -0.3319
vn 0.1224 -0.0000 -0.9925
vn 0.0215 0.9814 -0.1907
vn 0.0220 0.9897 -0.1412
vn 0.0355 0.9993 -0.0144
vn 0.0455 0.9960 0.0768
vn 0.0515 0.9919 0.1164
vn 0.0876 0.9684 0.2336
vn 0.2706 -0.0000 0.9627
vn -0.2231 0.9355 -0.2741
vn -0.6218 -0.0000 -0.7831
vn -0.1198 0.9802 -0.1579
vn -0.0831 0.9893 -0.1197
vn 0.0088 0.9995 -0.0311
vn 0.0814 0.9959 0.0383
vn 0.1132 0.9914 0.0656
vn 0.2146 0.9671 0.1366
vn 0.8116 -0.0000 0.5842
vn -0.2971 0.9344 -0.1965
vn -0.8391 -0.0000 -0.5440
vn -0.1656 0.9793 -0.1164
vn -0.1186 0.9888 -0.0903
vn -0.0013 0.9995 -0.0306
vn 0.0910 0.9957 0.0154
vn 0.1305 0.9909 0.0322
vn 0.2457 0.9667 0.0712
vn 0.9580 -0.0000 0.2868
vn 0.3259 -0.9221 -0.2087
vn 0.2595 -0.9266 -0.2720
vn 0.1828 -0.9769 -0.1104
vn 0.1496 -0.9774 -0.1491
vn 0.1378 -0.9875 -0.0763
vn 0.1147 -0.9877 -0.1067
vn 0.0432 -0.9990 0.0150
vn 0.0482 -0.9988 0.0004
vn -0.0316 -0.9958 0.0862
vn -0.0056 -0.9961 0.0876
vn -0.0634 -0.9912 0.1160
vn -0.0269 -0.9920 0.1233
vn -0.1439 -0.9647 0.2206
vn -0.0695 -0.9694 0.2356
vn 0.0259 -0.9429 -0.3319
vn 0.0215 -0.9814 -0.1907
vn 0.0220 -0.9897 -0.1412
vn 0.0355 -0.9993 -0.0144
vn 0.0455 -0.9960 0.0768
vn 0.0515 -0.9919 0.1164
vn 0.0876 -0.9684 0.2336
vn -0.2231 -0.9355 -0.2741
vn -0.1198 -0.9802 -0.1579
vn -0.0831 -0.9893 -0.1197
vn 0.0088 -0.9995 -0.0311
vn 0.0814 -0.9959 0.0383
vn 0.1132 -0.9914 0.0656
vn 0.2146 -0.9671 0.1366
vn -0.2971 -0.9344 -0.1965
vn -0.1656 -0.9793 -0.1164
vn -0.1186 -0.9888 -0.0903
vn -0.0013 -0.9995 -0.0306
vn 0.0910 -0.9957 0.0154
vn 0.1305 -0.9909 0.0322
vn 0.2457 -0.9667 0.0712
vt 24.206888 0.141619
vt 24.446037 0.141619
vt 24.446037 0.021158
vt 24.206888 0.021158
vt 24.206888 0.262080
vt 24.446037 0.262080
vt 24.206888 0.382542
vt 24.446037 0.382542
vt 24.206888 0.503003
vt 24.446037 0.503003
vt 24.206888 0.623464
vt 24.446037 0.623464
vt 24.206888 0.743926
vt 24.446037 0.743926
vt 24.206888 0.864387
vt 24.446037 0.864387
vt 24.206888 0.984848
vt 24.446037 0.984848
vt 24.685188 0.141619
vt 24.685188 0.021158
vt 24.685188 0.262080
vt 24.685188 0.382542
vt 24.685188 0.503003
vt 24.685188 0.623464
vt 24.685188 0.743926
vt 24.685188 0.864387
vt 24.685188 0.984848
vt 24.924339 0.141619
vt 24.924339 0.021158
vt 24.924339 0.262080
vt 24.924339 0.382542
vt 24.924339 0.503003
vt 24.924339 0.623464
vt 24.924339 0.743926
vt 24.924339 0.864387
vt 24.924339 0.984848
vt 25.163490 0.141619
vt 25.163490 0.021158
vt 25.163490 0.262080
vt 25.163490 0.382542
vt 25.163490 0.503003
vt 25.163490 0.623464
vt 25.163490 0.743926
vt 25.163490 0.864387
vt 25.163490 0.984848
s 1
f 2/1/1 11/2/2 10/3/3 1/4/4
f 3/5/5 12/6/6 11/2/2 2/1/1
f 4/7/7 13/8/8 12/6/6 3/5/5
f 5/9/9 14/10/10 13/8/8 4/7/7
f 6/11/11 15/12/12 14/10/10 5/9/9
f 7/13/13 16/14/14 15/12/12 6/11/11
f 8/15/15 17/16/16 16/14/14 7/13/13
f 9/17/17 18/18/18 17/16/16 8/15/15
f 11/2/2 20/19/19 19/20/20 10/3/3
f 12/6/6 21/21/21 20/19/19 11/2/2
f 13/8/8 22/22/22 21/21/21 12/6/6
f 14/10/10 23/23/23 22/22/22 13/8/8
f 15/12/12 24/24/24 23/23/23 14/10/10
f 16/14/14 25/25/25 24/24/24 15/12/12
f 17/16/16 26/26/26 25/25/25 16/14/14
f 18/18/18 27/27/27 26/26/26 17/16/16
f 20/19/19 29/28/28 28/29/29 19/20/20
f 21/21/21 30/30/30 29/28/28 20/19/19
f 22/22/22 31/31/31 30/30/30 21/21/21
f 23/23/23 32/32/32 31/31/31 22/22/22
f 24/24/24 33/33/33 32/32/32 23/23/23
f 25/25/25 34/34/34 33/33/33 24/24/24
f 26/26/26 35/35/35 34/34/34 25/25/25
f 27/27/27 36/36/36 35/35/35 26/26/26
f 29/28/28 38/37/37 37/38/38 28/29/29
f 30/30/30 39/39/39 38/37/37 29/28/28
f 31/31/31 40/40/40 39/39/39 30/30/30
f 32/32/32 41/41/41 40/40/40 31/31/31
f 33/33/33 42/42/42 41/41/41 32/32/32
f 34/34/34 43/43/43 42/42/42 33/33/33
f 35/35/35 44/44/44 43/43/43 34/34/34
f 36/36/36 45/45/45 44/44/44 35/35/35
f 46/1/46 1/4/4 10/3/3 53/2/47
f 47/5/48 46/1/46 53/2/47 54/6/49
f 48/7/50 47/5/48 54/6/49 55/8/51
f 49/9/52 48/7/50 55/8/51 56/10/53
f 50/11/54 49/9/52 56/10/53 57/12/55
f 51/13/56 50/11/54 57/12/55 58/14/57
f 52/15/58 51/13/56 58/14/57 59/16/59
f 9/17/17 52/15/58 59/16/59 18/18/18
f 53/2/47 10/3/3 19/20/20 60/19/60
f 54/6/49 53/2/47 60/19/60 61/21/61
f 55/8/51 54/6/49 61/21/61 62/22/62
f 56/10/53 55/8/51 62/22/62 63/23/63
f 57/12/55 56/10/53 63/23/63 64/24/64
f 58/14/57 57/12/55 64/24/64 65/25/65
f 59/16/59 58/14/57 65/25/65 66/26/66
f 18/18/18 59/16/59 66/26/66 27/27/27
f 60/19/60 19/20/20 28/29/29 67/28/67
f 61/21/61 60/19/60 67/28/67 68/30/68
f 62/22/62 61/21/61 68/30/68 69/31/69
f 63/23/63 62/22/62 69/31/69 70/32/70
f 64/24/64 63/23/63 70/32/70 71/33/71
f 65/25/65 64/24/64 71/33/71 72/34/72
f 66/26/66 65/25/65 72/34/72 73/35/73
f 27/27/27 66/26/66 73/35/73 36/36/36
f 67/28/67 28/29/29 37/38/38 74/37/74
f 68/30/68 67/28/67 74/37/74 75/39/75
f 69/31/69 68/30/68 75/39/75 76/40/76
f 70/32/70 69/31/69 76/40/76 77/41/77
f 71/33/71 70/32/70 77/41/77 78/42/78
f 72/34/72 71/33/71 78/42/78 79/43/79
f 73/35/73 72/34/72 79/43/79 80/44/80
f 36/36/36 73/35/73 80/44/80 45/45/45
